<?xml version="1.0" standalone="no"?>
<!DOCTYPE svg PUBLIC "-//W3C//DTD SVG 20010904//EN"
 "http://www.w3.org/TR/2001/REC-SVG-20010904/DTD/svg10.dtd">
<svg version="1.0" xmlns="http://www.w3.org/2000/svg"
 width="264.000000pt" height="374.000000pt" viewBox="0 0 264.000000 374.000000"
 preserveAspectRatio="xMidYMid meet">

<g transform="translate(0.000000,374.000000) scale(0.100000,-0.100000)"
fill="#000000" stroke="none">
<path d="M1165 3173 c-68 -10 -195 -47 -262 -74 -50 -21 -84 -44 -112 -74 -47
-51 -50 -67 -19 -89 33 -24 96 -20 225 14 63 17 125 30 137 30 11 0 39 7 61
15 48 17 85 19 85 5 0 -16 -97 -110 -113 -110 -9 0 -31 -41 -58 -107 -58 -145
-204 -437 -274 -548 -32 -49 -87 -127 -122 -173 l-65 -83 -23 21 c-25 24 -90
44 -106 34 -16 -10 -49 -85 -49 -113 0 -14 11 -37 26 -52 l25 -26 -168 -172
c-92 -95 -174 -186 -181 -202 -11 -27 -10 -32 13 -55 22 -22 32 -25 63 -19 20
4 52 14 71 23 52 24 224 170 237 200 6 15 36 54 66 86 l54 60 101 -14 c56 -7
128 -10 162 -7 74 6 104 0 97 -20 -4 -9 1 -17 14 -20 11 -3 20 -10 20 -15 0
-6 14 -8 33 -4 l33 6 1 -57 c1 -32 2 -110 3 -173 1 -63 7 -124 13 -135 10 -18
27 -125 26 -165 0 -8 1 -53 1 -100 1 -47 2 -96 2 -110 0 -14 -2 -45 -6 -69
-10 -74 29 -106 74 -61 24 24 26 62 5 94 -8 12 -17 51 -20 87 -3 35 -8 79 -10
96 -2 18 0 33 6 33 5 0 9 -8 9 -17 0 -9 2 -14 4 -12 2 2 -3 63 -10 134 -21
186 -26 335 -12 335 7 0 7 4 0 13 -14 17 -4 87 13 93 7 3 59 -4 116 -15 57
-11 147 -23 199 -27 52 -3 132 -17 178 -30 48 -14 109 -24 146 -24 43 0 67 -5
76 -14 6 -8 37 -20 68 -27 31 -7 64 -18 73 -26 8 -7 39 -17 68 -23 29 -5 71
-23 94 -40 23 -16 80 -46 127 -66 47 -20 96 -44 110 -53 24 -15 24 -15 11 2
-8 10 -28 25 -44 34 -20 10 -26 17 -18 22 17 11 -89 72 -340 198 -26 13 -52
23 -58 23 -7 0 -36 11 -64 24 -78 35 -152 57 -202 61 -25 1 -54 9 -63 18 -9 8
-105 36 -212 61 -195 47 -230 60 -211 79 15 15 -16 40 -44 35 -39 -8 -54 9
-20 22 199 76 349 173 481 313 115 120 173 265 174 429 0 136 -39 242 -121
333 -64 70 -141 116 -260 156 -78 27 -112 32 -199 35 -58 1 -118 0 -135 -3z
m210 -176 c61 -16 185 -98 242 -160 54 -59 77 -134 71 -228 -12 -167 -143
-330 -381 -474 -43 -26 -80 -45 -83 -42 -7 6 14 262 32 397 9 63 20 187 24
275 9 183 18 245 34 245 6 0 34 -6 61 -13z m-280 -922 c5 -39 4 -43 -22 -53
-45 -18 -158 -50 -161 -47 -2 2 15 31 38 64 22 34 53 87 69 119 53 111 55 112
63 31 3 -40 9 -91 13 -114z"/>
<path d="M2500 1356 c0 -2 8 -10 18 -17 15 -13 16 -12 3 4 -13 16 -21 21 -21
13z"/>
<path d="M1252 1030 c0 -14 2 -19 5 -12 2 6 2 18 0 25 -3 6 -5 1 -5 -13z"/>
</g>
</svg>
