<?xml version="1.0" standalone="no"?>
<!DOCTYPE svg PUBLIC "-//W3C//DTD SVG 20010904//EN"
 "http://www.w3.org/TR/2001/REC-SVG-20010904/DTD/svg10.dtd">
<svg version="1.0" xmlns="http://www.w3.org/2000/svg"
 width="1024.000000pt" height="1024.000000pt" viewBox="0 0 1024.000000 1024.000000"
 preserveAspectRatio="xMidYMid meet">

<g transform="translate(0.000000,1024.000000) scale(0.100000,-0.100000)"
fill="#000000" stroke="none">
<path d="M5059 8666 c-204 -57 -344 -256 -326 -466 7 -79 27 -136 77 -211 l36
-56 -164 -299 c-90 -164 -182 -333 -204 -374 -22 -41 -76 -138 -118 -215 -43
-77 -154 -282 -248 -455 -93 -173 -276 -513 -407 -755 -264 -488 -336 -627
-331 -633 2 -2 51 28 108 66 152 101 212 135 370 211 143 69 405 165 485 177
42 6 43 8 102 113 32 58 139 250 237 426 158 285 347 618 821 1440 150 260
179 328 189 445 20 211 -108 454 -288 546 -101 52 -238 67 -339 40z"/>
<path d="M4190 8177 c-191 -67 -281 -105 -445 -187 -873 -439 -1527 -1258
-1765 -2210 -161 -642 -99 -1373 170 -2005 44 -104 158 -334 233 -469 l44 -78
30 53 c17 30 58 105 92 167 187 346 427 633 653 782 183 120 380 150 536 79
42 -19 45 -22 29 -32 -292 -183 -595 -466 -818 -764 -177 -237 -443 -691 -506
-863 -61 -166 -21 -346 101 -458 130 -118 292 -141 452 -62 81 40 145 110 228
250 264 444 629 788 1061 1000 217 107 430 170 675 200 399 48 881 -86 1291
-359 182 -122 280 -202 439 -361 158 -158 269 -301 365 -472 38 -68 91 -147
119 -176 88 -93 228 -144 342 -123 156 29 271 130 319 280 13 39 16 76 13 140
-8 173 -56 238 -516 699 -276 275 -387 375 -580 519 -410 307 -850 499 -1329
580 -151 25 -498 23 -665 -4 l-117 -19 -36 51 c-36 53 -147 164 -220 222 l-40
32 55 24 c198 88 497 147 745 147 419 0 905 -160 1341 -440 259 -167 420 -298
1064 -863 l282 -249 70 124 c247 436 391 858 455 1333 26 200 24 614 -5 800
-141 904 -616 1688 -1355 2234 -285 211 -687 414 -994 502 l-65 18 6 -42 c20
-119 24 -203 16 -274 -13 -106 -24 -142 -80 -255 l-49 -96 97 -33 c116 -40
410 -185 542 -268 202 -127 524 -417 661 -596 481 -629 669 -1311 558 -2030
-13 -86 -78 -357 -89 -368 -4 -4 -38 27 -76 69 -80 89 -338 325 -457 418 -430
333 -883 553 -1359 660 -216 48 -317 59 -558 60 -239 1 -345 -10 -560 -58
-105 -24 -325 -89 -346 -104 -12 -7 -109 -186 -219 -400 -45 -89 -61 -112 -74
-106 -56 22 -156 44 -230 50 -316 23 -641 -146 -962 -503 -46 -51 -85 -91 -86
-89 -10 10 -57 191 -78 302 -123 655 19 1322 404 1901 219 329 448 560 761
767 187 124 388 226 580 296 36 13 68 26 73 30 4 3 -13 49 -37 101 -77 163
-96 347 -51 509 8 30 15 56 15 58 0 8 -39 -3 -150 -41z"/>
<path d="M5511 7080 c-101 -182 -186 -341 -188 -354 -3 -16 36 -98 127 -267
73 -134 155 -287 183 -339 96 -178 222 -407 237 -429 11 -15 38 -27 95 -41
155 -36 404 -135 575 -228 68 -36 219 -132 325 -207 36 -25 20 18 -70 187
-545 1018 -1084 2008 -1094 2008 -4 0 -89 -149 -190 -330z"/>
<path d="M3715 2568 c-104 -144 -198 -274 -207 -289 l-16 -27 81 -46 c416
-238 900 -383 1384 -416 400 -27 850 41 1263 191 131 48 490 220 539 258 l25
19 -83 113 c-219 302 -269 370 -302 409 l-35 43 -85 -47 c-243 -137 -543 -232
-859 -272 -254 -32 -619 -8 -872 57 -181 46 -459 158 -589 239 -27 16 -50 30
-52 30 -1 0 -87 -118 -192 -262z"/>
</g>
</svg>
